<svg viewBox="0 0 1000 800" xmlns="http://www.w3.org/2000/svg">
  <!-- Background and Title -->
  <rect width="1000" height="800" fill="#f8f9fa" />
  <text x="500" y="40" font-family="Arial" font-size="24" font-weight="bold" text-anchor="middle" fill="#333">Centralized Jenkins CI/CD with GenAI Enhancement</text>

  <!-- Central Jenkins Server -->
  <rect x="350" y="80" width="300" height="200" rx="10" fill="#D4E6F1" stroke="#2471A3" stroke-width="2" />
  <text x="500" y="105" font-family="Arial" font-size="16" font-weight="bold" text-anchor="middle" fill="#2E4053">Central Jenkins Server</text>
  
  <!-- Jenkins Components -->
  <rect x="380" y="120" width="240" height="40" rx="5" fill="#85C1E9" stroke="#2980B9" stroke-width="1" />
  <text x="500" y="145" font-family="Arial" font-size="12" text-anchor="middle" fill="#333">Role-Based Access Control (RBAC)</text>
  
  <rect x="380" y="170" width="110" height="80" rx="5" fill="#85C1E9" stroke="#2980B9" stroke-width="1" />
  <text x="435" y="195" font-family="Arial" font-size="12" text-anchor="middle" fill="#333">Team A Folder</text>
  <text x="435" y="215" font-family="Arial" font-size="10" text-anchor="middle" fill="#333">Pipelines</text>
  <text x="435" y="235" font-family="Arial" font-size="10" text-anchor="middle" fill="#333">Credentials</text>
  
  <rect x="510" y="170" width="110" height="80" rx="5" fill="#85C1E9" stroke="#2980B9" stroke-width="1" />
  <text x="565" y="195" font-family="Arial" font-size="12" text-anchor="middle" fill="#333">Team B Folder</text>
  <text x="565" y="215" font-family="Arial" font-size="10" text-anchor="middle" fill="#333">Pipelines</text>
  <text x="565" y="235" font-family="Arial" font-size="10" text-anchor="middle" fill="#333">Credentials</text>

  <!-- Git Repositories Section -->
  <rect x="50" y="120" width="200" height="150" rx="10" fill="#D5F5E3" stroke="#27AE60" stroke-width="2" />
  <text x="150" y="145" font-family="Arial" font-size="16" font-weight="bold" text-anchor="middle" fill="#2E4053">Git Repositories</text>
  
  <rect x="70" y="165" width="160" height="30" rx="5" fill="#82E0AA" stroke="#229954" stroke-width="1" />
  <text x="150" y="185" font-family="Arial" font-size="12" text-anchor="middle" fill="#333">Team A Repository</text>
  
  <rect x="70" y="205" width="160" height="30" rx="5" fill="#82E0AA" stroke="#229954" stroke-width="1" />
  <text x="150" y="225" font-family="Arial" font-size="12" text-anchor="middle" fill="#333">Team B Repository</text>

  <!-- Central Git Access -->
  <rect x="65" y="250" width="170" height="30" rx="5" fill="#ABEBC6" stroke="#229954" stroke-width="1" />
  <text x="150" y="270" font-family="Arial" font-size="11" text-anchor="middle" fill="#333">Central Service/Bot User</text>

  <!-- Deployment Environments -->
  <rect x="750" y="120" width="200" height="150" rx="10" fill="#FADBD8" stroke="#CB4335" stroke-width="2" />
  <text x="850" y="145" font-family="Arial" font-size="16" font-weight="bold" text-anchor="middle" fill="#2E4053">Deployment Environments</text>
  
  <rect x="770" y="165" width="160" height="30" rx="5" fill="#F5B7B1" stroke="#B03A2E" stroke-width="1" />
  <text x="850" y="185" font-family="Arial" font-size="12" text-anchor="middle" fill="#333">Team A Servers</text>
  
  <rect x="770" y="205" width="160" height="30" rx="5" fill="#F5B7B1" stroke="#B03A2E" stroke-width="1" />
  <text x="850" y="225" font-family="Arial" font-size="12" text-anchor="middle" fill="#333">Team B Servers</text>

  <!-- GenAI Layer -->
  <rect x="150" y="360" width="700" height="220" rx="10" fill="#E8DAEF" stroke="#8E44AD" stroke-width="2" />
  <text x="500" y="385" font-family="Arial" font-size="18" font-weight="bold" text-anchor="middle" fill="#4A235A">GenAI Enhancement Layer</text>

  <!-- GenAI Components -->
  <rect x="180" y="405" width="200" height="150" rx="5" fill="#D2B4DE" stroke="#7D3C98" stroke-width="1" />
  <text x="280" y="425" font-family="Arial" font-size="14" font-weight="bold" text-anchor="middle" fill="#4A235A">Pipeline Intelligence</text>
  <text x="280" y="445" font-family="Arial" font-size="11" text-anchor="middle" fill="#333">Smart Jenkinsfile Generation</text>
  <text x="280" y="465" font-family="Arial" font-size="11" text-anchor="middle" fill="#333">Pipeline Optimization</text>
  <text x="280" y="485" font-family="Arial" font-size="11" text-anchor="middle" fill="#333">Self-Healing Pipelines</text>
  <text x="280" y="505" font-family="Arial" font-size="11" text-anchor="middle" fill="#333">Build Time Analysis</text>
  <text x="280" y="525" font-family="Arial" font-size="11" text-anchor="middle" fill="#333">Resource Usage Optimization</text>
  
  <rect x="400" y="405" width="200" height="150" rx="5" fill="#D2B4DE" stroke="#7D3C98" stroke-width="1" />
  <text x="500" y="425" font-family="Arial" font-size="14" font-weight="bold" text-anchor="middle" fill="#4A235A">Code Intelligence</text>
  <text x="500" y="445" font-family="Arial" font-size="11" text-anchor="middle" fill="#333">Automated Code Reviews</text>
  <text x="500" y="465" font-family="Arial" font-size="11" text-anchor="middle" fill="#333">Security Vulnerability Detection</text>
  <text x="500" y="485" font-family="Arial" font-size="11" text-anchor="middle" fill="#333">Test Coverage Optimization</text>
  <text x="500" y="505" font-family="Arial" font-size="11" text-anchor="middle" fill="#333">Secret Detection</text>
  <text x="500" y="525" font-family="Arial" font-size="11" text-anchor="middle" fill="#333">Code Quality Analysis</text>
  
  <rect x="620" y="405" width="200" height="150" rx="5" fill="#D2B4DE" stroke="#7D3C98" stroke-width="1" />
  <text x="720" y="425" font-family="Arial" font-size="14" font-weight="bold" text-anchor="middle" fill="#4A235A">DevOps Experience</text>
  <text x="720" y="445" font-family="Arial" font-size="11" text-anchor="middle" fill="#333">Natural Language Interface</text>
  <text x="720" y="465" font-family="Arial" font-size="11" text-anchor="middle" fill="#333">Anomaly Detection</text>
  <text x="720" y="485" font-family="Arial" font-size="11" text-anchor="middle" fill="#333">Root Cause Analysis</text>
  <text x="720" y="505" font-family="Arial" font-size="11" text-anchor="middle" fill="#333">Auto-Documentation</text>
  <text x="720" y="525" font-family="Arial" font-size="11" text-anchor="middle" fill="#333">Deployment Intelligence</text>

  <!-- Workflow Section -->
  <rect x="150" y="600" width="700" height="160" rx="10" fill="#FCF3CF" stroke="#D4AC0D" stroke-width="2" />
  <text x="500" y="625" font-family="Arial" font-size="18" font-weight="bold" text-anchor="middle" fill="#7D6608">Pipeline Workflow</text>

  <!-- Workflow Steps -->
  <rect x="180" y="645" width="100" height="90" rx="5" fill="#F9E79F" stroke="#D4AC0D" stroke-width="1" />
  <text x="230" y="665" font-family="Arial" font-size="12" font-weight="bold" text-anchor="middle" fill="#7D6608">Code Commit</text>
  <text x="230" y="685" font-family="Arial" font-size="10" text-anchor="middle" fill="#333">Webhook Trigger</text>
  <text x="230" y="705" font-family="Arial" font-size="10" text-anchor="middle" fill="#333">Central Git Access</text>
  
  <rect x="310" y="645" width="100" height="90" rx="5" fill="#F9E79F" stroke="#D4AC0D" stroke-width="1" />
  <text x="360" y="665" font-family="Arial" font-size="12" font-weight="bold" text-anchor="middle" fill="#7D6608">AI Analysis</text>
  <text x="360" y="685" font-family="Arial" font-size="10" text-anchor="middle" fill="#333">Code Review</text>
  <text x="360" y="705" font-family="Arial" font-size="10" text-anchor="middle" fill="#333">Security Scan</text>
  
  <rect x="440" y="645" width="100" height="90" rx="5" fill="#F9E79F" stroke="#D4AC0D" stroke-width="1" />
  <text x="490" y="665" font-family="Arial" font-size="12" font-weight="bold" text-anchor="middle" fill="#7D6608">Build</text>
  <text x="490" y="685" font-family="Arial" font-size="10" text-anchor="middle" fill="#333">AI-Optimized</text>
  <text x="490" y="705" font-family="Arial" font-size="10" text-anchor="middle" fill="#333">Self-Healing</text>
  
  <rect x="570" y="645" width="100" height="90" rx="5" fill="#F9E79F" stroke="#D4AC0D" stroke-width="1" />
  <text x="620" y="665" font-family="Arial" font-size="12" font-weight="bold" text-anchor="middle" fill="#7D6608">Test</text>
  <text x="620" y="685" font-family="Arial" font-size="10" text-anchor="middle" fill="#333">Coverage Analysis</text>
  <text x="620" y="705" font-family="Arial" font-size="10" text-anchor="middle" fill="#333">AI Test Suggestions</text>
  
  <rect x="700" y="645" width="100" height="90" rx="5" fill="#F9E79F" stroke="#D4AC0D" stroke-width="1" />
  <text x="750" y="665" font-family="Arial" font-size="12" font-weight="bold" text-anchor="middle" fill="#7D6608">Deploy</text>
  <text x="750" y="685" font-family="Arial" font-size="10" text-anchor="middle" fill="#333">Team Credentials</text>
  <text x="750" y="705" font-family="Arial" font-size="10" text-anchor="middle" fill="#333">Smart Deployment</text>

  <!-- Connection Lines -->
  <!-- Git to Jenkins -->
  <line x1="250" y1="170" x2="350" y2="170" stroke="#333" stroke-width="1.5" stroke-dasharray="5,5" />
  <polygon points="345,165 350,170 345,175" fill="#333" />
  
  <!-- Jenkins to Deployment -->
  <line x1="650" y1="170" x2="750" y2="170" stroke="#333" stroke-width="1.5" stroke-dasharray="5,5" />
  <polygon points="745,165 750,170 745,175" fill="#333" />
  
  <!-- Jenkins to GenAI -->
  <line x1="500" y1="280" x2="500" y2="360" stroke="#333" stroke-width="1.5" />
  <polygon points="495,355 500,360 505,355" fill="#333" />
  
  <!-- GenAI to Workflow -->
  <line x1="500" y1="580" x2="500" y2="600" stroke="#333" stroke-width="1.5" />
  <polygon points="495,595 500,600 505,595" fill="#333" />
  
  <!-- Flow Arrows in Workflow -->
  <line x1="280" y1="690" x2="310" y2="690" stroke="#333" stroke-width="1" />
  <polygon points="305,685 310,690 305,695" fill="#333" />
  
  <line x1="410" y1="690" x2="440" y2="690" stroke="#333" stroke-width="1" />
  <polygon points="435,685 440,690 435,695" fill="#333" />
  
  <line x1="540" y1="690" x2="570" y2="690" stroke="#333" stroke-width="1" />
  <polygon points="565,685 570,690 565,695" fill="#333" />
  
  <line x1="670" y1="690" x2="700" y2="690" stroke="#333" stroke-width="1" />
  <polygon points="695,685 700,690 695,695" fill="#333" />
</svg>
